<svg width="121" height="24" viewBox="0 0 121 24" fill="none" xmlns="http://www.w3.org/2000/svg">
<path d="M19.7269 23.029C19.3499 23.029 19.0889 22.855 19.0889 22.536V22.42C19.0889 21.695 20.1909 21.463 20.1039 20.216L19.8139 14.909C19.6689 11.632 18.8279 10.443 17.2909 10.443C15.8699 10.443 14.9709 11.777 14.9419 13.604C14.9999 14.01 15.0289 14.416 15.0289 14.851V20.216C15.0289 21.463 16.0729 21.695 16.0729 22.42V22.536C16.0729 22.855 15.8119 23.029 15.4059 23.029H10.4179C10.0409 23.029 9.75093 22.855 9.75093 22.536V22.42C9.75093 21.695 10.7949 21.463 10.7949 20.216V14.561C10.7949 11.864 9.75093 10.443 8.27193 10.443C6.67693 10.443 5.77793 11.835 5.77793 13.662V20.216C5.77793 21.463 6.99593 21.695 6.99593 22.42V22.536C6.99593 22.855 6.76393 23.029 6.35793 23.029H0.96393C0.58693 23.029 0.29693 22.855 0.29693 22.536V22.42C0.29693 21.695 1.51493 21.463 1.51493 20.216V13.459C1.51493 12.183 0.12293 12.038 0.12293 11.313V11.197C0.12293 10.907 0.38393 10.762 0.73193 10.588L4.38593 8.906C5.05293 8.558 5.40093 8.964 5.40093 9.515V10.878C6.24193 9.602 7.69193 8.79 9.40293 8.79C11.4619 8.79 13.2309 9.689 14.2169 11.429C14.9999 9.747 16.6819 8.79 18.6249 8.79C21.2639 8.79 23.6709 10.298 24.0189 15.025L24.3669 20.187C24.4539 21.463 25.4109 21.695 25.4109 22.42V22.536C25.4109 22.855 25.1499 23.029 24.7729 23.029H19.7269ZM33.7033 23.29C29.6433 23.29 26.6853 20.39 26.6853 15.924C26.6853 11.719 29.9043 8.79 33.7033 8.79C37.4733 8.79 39.1843 10.994 39.1843 12.908C39.1843 13.894 38.6623 14.474 37.8793 14.822L31.4703 17.751C32.2243 19.346 33.5583 20.274 35.2693 20.274C36.8063 20.274 38.0243 19.491 38.5753 18.592C38.9523 18.157 39.6193 18.302 39.5903 18.911C39.4163 20.593 37.4443 23.29 33.7033 23.29ZM30.6873 13.923C30.6873 14.822 30.7743 15.663 30.9773 16.417L34.7473 14.532C35.2403 14.271 35.5013 13.778 35.5013 13.169C35.5013 12.125 34.7183 10.066 33.1523 10.066C31.6443 10.066 30.6873 11.719 30.6873 13.923ZM41.9731 23C41.5671 23 41.3061 22.826 41.3061 22.507V22.391C41.3061 21.666 42.4371 21.434 42.4371 20.216V13.43C42.4371 12.154 41.1321 12.067 41.1321 11.342V11.226C41.1321 10.936 41.3351 10.704 41.7121 10.53L45.1921 8.906C45.8591 8.587 46.1201 8.935 46.1201 9.457V11.661C46.7581 9.805 48.1211 8.79 50.0641 8.79C51.7751 8.79 52.7611 9.95 52.7611 11.429C52.7611 12.647 52.2681 13.72 50.8761 13.72C48.6141 13.72 49.6581 11.226 48.0921 11.226C46.9321 11.226 46.5551 12.821 46.5551 14.416V20.216C46.5551 21.434 47.9761 21.666 47.9761 22.391V22.507C47.9761 22.826 47.7151 23 47.3381 23H41.9731ZM60.8168 23.29C56.4088 23.29 53.3058 19.926 53.3058 16.011C53.3058 11.545 56.6988 8.819 60.6428 8.79C63.9778 8.761 66.6458 10.588 66.6458 12.85C66.6458 13.604 66.1528 14.358 64.8478 14.3C62.3248 14.155 62.4988 10.037 59.9758 10.066C58.3518 10.066 57.3078 11.777 57.3078 13.923C57.3078 17.78 59.2508 20.303 62.2378 20.303C64.0068 20.303 65.1088 19.317 65.7178 18.273C66.0368 17.809 66.7908 17.925 66.7328 18.563C66.5298 20.941 64.5868 23.29 60.8168 23.29ZM78.413 23C78.036 23 77.775 22.826 77.775 22.507V22.391C77.775 21.666 78.877 21.434 78.819 20.187L78.529 14.619C78.384 11.719 77.543 10.443 76.006 10.443C74.44 10.443 73.541 11.748 73.541 13.633V20.216C73.541 21.434 74.788 21.666 74.788 22.391V22.507C74.788 22.797 74.498 23 74.092 23H68.727C68.321 23 68.06 22.797 68.06 22.507V22.391C68.06 21.666 69.278 21.434 69.278 20.216V5.774C69.278 4.498 67.973 4.382 67.973 3.686V3.599C67.973 3.28 68.205 3.048 68.553 2.874L72.381 1.192C73.019 0.901999 73.425 1.134 73.425 1.714L73.396 10.414C74.266 9.37 75.571 8.79 77.195 8.79C79.834 8.79 82.386 10.356 82.676 14.735L83.053 20.158C83.169 21.434 84.097 21.666 84.097 22.391V22.507C84.097 22.826 83.836 23 83.459 23H78.413ZM95.602 23C95.254 23 95.022 22.797 95.022 22.478V22.42C95.022 21.695 96.095 21.521 95.602 20.825L92.47 16.417L90.759 18.012V20.216C90.759 21.434 92.006 21.666 92.006 22.391V22.507C92.006 22.797 91.716 23 91.339 23H86.003C85.597 23 85.336 22.797 85.336 22.507V22.391C85.336 21.666 86.467 21.434 86.467 20.216V5.948C86.467 4.643 85.162 4.353 85.162 3.744V3.628C85.162 3.338 85.365 3.193 85.713 3.048L89.57 1.25C90.295 0.901999 90.759 1.279 90.759 1.772V15.779L95.312 11.835C96.182 11.11 94.616 10.385 94.616 9.689V9.573C94.616 9.254 94.848 9.08 95.225 9.08H99.372C99.72 9.08 99.952 9.254 99.952 9.544V9.66C99.952 10.385 98.531 10.849 97.458 11.806L95.109 13.981L100.01 20.825C100.474 21.492 101.576 21.724 101.576 22.42V22.507C101.576 22.826 101.344 23 100.967 23H95.602ZM102.859 23C102.453 23 102.221 22.797 102.221 22.507V22.391C102.221 21.666 103.323 21.434 103.323 20.187V13.633C103.323 12.357 102.221 12.038 102.221 11.4V11.313C102.221 11.052 102.453 10.907 102.801 10.704L106.455 8.906C107.18 8.558 107.615 8.964 107.615 9.457V20.187C107.615 21.434 108.862 21.666 108.862 22.391V22.507C108.862 22.797 108.601 23 108.195 23H102.859ZM102.627 4.469C102.627 3.019 103.787 1.946 105.498 1.946C107.209 1.946 108.311 3.019 108.311 4.469C108.311 5.948 107.209 7.021 105.498 7.021C103.787 7.021 102.627 5.948 102.627 4.469ZM116.202 23.29C113.563 23.29 111.794 21.579 111.794 18.273V10.762H110.431C110.083 10.762 109.851 10.53 109.851 10.182V9.66C109.851 9.312 110.054 9.08 110.431 9.08H111.156C112.78 9.08 113.94 7.92 114.23 6.209C114.317 5.774 114.578 5.513 114.926 5.513H115.477C115.883 5.513 116.144 5.774 116.144 6.209V9.08H119.479C119.798 9.08 120.059 9.341 120.059 9.66V10.182C120.059 10.53 119.798 10.762 119.479 10.762H116.144V18.331C116.144 19.491 116.782 20.187 117.652 20.187C118.812 20.187 119.392 19.549 119.624 18.882C119.943 18.389 120.639 18.505 120.639 19.056C120.639 21.144 119.073 23.29 116.202 23.29Z" fill="#F3F4F4"/>
</svg>
